<?xml version="1.0" encoding="utf-8"?>
<svg viewBox="176.898 117.514 24 24" xmlns="http://www.w3.org/2000/svg">
  <g>
    <g stroke="none" stroke-width="1" fill="none" fill-rule="evenodd" transform="matrix(1, 0, 0, 1, 176.898117, 117.514465)">
      <rect x="0" y="0" width="24" height="24"/>
      <path d="M12,3 C16.418278,3 20,6.581722 20,11 L20,21 C20,21.5522847 19.5522847,22 19,22 L5,22 C4.44771525,22 4,21.5522847 4,21 L4,11 C4,6.581722 7.581722,3 12,3 Z M9,10 C7.34314575,10 6,11.3431458 6,13 C6,14.6568542 7.34314575,16 9,16 L15,16 C16.6568542,16 18,14.6568542 18,13 C18,11.3431458 16.6568542,10 15,10 L9,10 Z" fill="#000000"/>
      <path d="M15,14 C14.4477153,14 14,13.5522847 14,13 C14,12.4477153 14.4477153,12 15,12 C15.5522847,12 16,12.4477153 16,13 C16,13.5522847 15.5522847,14 15,14 Z M9,14 C8.44771525,14 8,13.5522847 8,13 C8,12.4477153 8.44771525,12 9,12 C9.55228475,12 10,12.4477153 10,13 C10,13.5522847 9.55228475,14 9,14 Z" fill="#000000" opacity="0.3"/>
    </g>
  </g>
  <circle style="fill: rgb(216, 216, 216);" transform="matrix(1, 0, 0, 1.00001, -100.65288, -215.018941)" cx="292.593" cy="345.556" r="1.823"/>
  <circle style="fill: rgb(216, 216, 216);" transform="matrix(1, 0, 0, 1.00001, -48.467702, -215.018941)" cx="234.259" cy="345.556" r="1.815"/>
</svg>